<mxfile host="app.diagrams.net" modified="2024-06-11T14:47:32.776Z" agent="Mozilla/5.0 (Windows NT 10.0; Win64; x64) AppleWebKit/537.36 (KHTML, like Gecko) Chrome/125.0.0.0 Safari/537.36 Edg/125.0.0.0" etag="hf3iWMe_UBIqSLFNe2JK" version="24.5.3" type="github">
  <diagram name="第 1 页" id="Zs_ZaR2ghkHN8LJk0DMp">
    <mxGraphModel dx="370" dy="793" grid="1" gridSize="10" guides="1" tooltips="1" connect="1" arrows="1" fold="1" page="1" pageScale="1" pageWidth="827" pageHeight="1169" math="0" shadow="0">
      <root>
        <mxCell id="0" />
        <mxCell id="1" parent="0" />
        <mxCell id="Ac4ICfkRYc5ZsgaLKNUM-4" style="edgeStyle=orthogonalEdgeStyle;rounded=0;orthogonalLoop=1;jettySize=auto;html=1;" parent="1" source="Ac4ICfkRYc5ZsgaLKNUM-6" target="Ac4ICfkRYc5ZsgaLKNUM-9" edge="1">
          <mxGeometry relative="1" as="geometry" />
        </mxCell>
        <mxCell id="Ac4ICfkRYc5ZsgaLKNUM-5" value="AlphaFold3" style="edgeLabel;html=1;align=center;verticalAlign=middle;resizable=0;points=[];rounded=0;" parent="Ac4ICfkRYc5ZsgaLKNUM-4" vertex="1" connectable="0">
          <mxGeometry x="-0.1333" relative="1" as="geometry">
            <mxPoint y="4" as="offset" />
          </mxGeometry>
        </mxCell>
        <mxCell id="Ac4ICfkRYc5ZsgaLKNUM-6" value="Amino acid sequences, substrates" style="rounded=0;whiteSpace=wrap;html=1;" parent="1" vertex="1">
          <mxGeometry x="1226" y="290" width="120" height="60" as="geometry" />
        </mxCell>
        <mxCell id="Ac4ICfkRYc5ZsgaLKNUM-7" style="edgeStyle=orthogonalEdgeStyle;rounded=0;orthogonalLoop=1;jettySize=auto;html=1;entryX=0.5;entryY=0;entryDx=0;entryDy=0;" parent="1" source="Ac4ICfkRYc5ZsgaLKNUM-9" target="Ac4ICfkRYc5ZsgaLKNUM-12" edge="1">
          <mxGeometry relative="1" as="geometry">
            <mxPoint x="1216" y="550" as="targetPoint" />
          </mxGeometry>
        </mxCell>
        <mxCell id="Ac4ICfkRYc5ZsgaLKNUM-8" value="Molecule Docking" style="edgeLabel;html=1;align=center;verticalAlign=middle;resizable=0;points=[];rounded=0;" parent="Ac4ICfkRYc5ZsgaLKNUM-7" vertex="1" connectable="0">
          <mxGeometry x="-0.1056" y="-2" relative="1" as="geometry">
            <mxPoint x="2" y="2" as="offset" />
          </mxGeometry>
        </mxCell>
        <mxCell id="Ac4ICfkRYc5ZsgaLKNUM-9" value="3D strutures of all&amp;nbsp;biomacromolecule&amp;nbsp;" style="rounded=0;whiteSpace=wrap;html=1;" parent="1" vertex="1">
          <mxGeometry x="1226" y="410" width="120" height="60" as="geometry" />
        </mxCell>
        <mxCell id="Ac4ICfkRYc5ZsgaLKNUM-10" style="edgeStyle=orthogonalEdgeStyle;orthogonalLoop=1;jettySize=auto;html=1;entryX=0;entryY=0.5;entryDx=0;entryDy=0;" parent="1" source="Ac4ICfkRYc5ZsgaLKNUM-12" target="Ac4ICfkRYc5ZsgaLKNUM-20" edge="1">
          <mxGeometry relative="1" as="geometry">
            <Array as="points">
              <mxPoint x="1386" y="550" />
              <mxPoint x="1386" y="550" />
            </Array>
          </mxGeometry>
        </mxCell>
        <mxCell id="Ac4ICfkRYc5ZsgaLKNUM-11" value="INPUT" style="edgeLabel;html=1;align=center;verticalAlign=middle;resizable=0;points=[];rotation=-90;" parent="Ac4ICfkRYc5ZsgaLKNUM-10" vertex="1" connectable="0">
          <mxGeometry x="0.075" y="2" relative="1" as="geometry">
            <mxPoint as="offset" />
          </mxGeometry>
        </mxCell>
        <mxCell id="Ac4ICfkRYc5ZsgaLKNUM-12" value="Predicted GPRs" style="rounded=0;whiteSpace=wrap;html=1;" parent="1" vertex="1">
          <mxGeometry x="1226" y="520" width="120" height="60" as="geometry" />
        </mxCell>
        <mxCell id="Ac4ICfkRYc5ZsgaLKNUM-13" value="" style="edgeStyle=orthogonalEdgeStyle;orthogonalLoop=1;jettySize=auto;html=1;" parent="1" source="Ac4ICfkRYc5ZsgaLKNUM-15" target="Ac4ICfkRYc5ZsgaLKNUM-17" edge="1">
          <mxGeometry relative="1" as="geometry" />
        </mxCell>
        <mxCell id="Ac4ICfkRYc5ZsgaLKNUM-14" value="Deep Learning" style="edgeLabel;html=1;align=center;verticalAlign=middle;resizable=0;points=[];" parent="Ac4ICfkRYc5ZsgaLKNUM-13" vertex="1" connectable="0">
          <mxGeometry x="-0.5385" y="-1" relative="1" as="geometry">
            <mxPoint x="1" y="128" as="offset" />
          </mxGeometry>
        </mxCell>
        <mxCell id="Ac4ICfkRYc5ZsgaLKNUM-15" value="Known GPRs and K&lt;span style=&quot;font-size: 10px;&quot;&gt;r&lt;/span&gt;" style="rounded=0;whiteSpace=wrap;html=1;" parent="1" vertex="1">
          <mxGeometry x="1426" y="290" width="120" height="60" as="geometry" />
        </mxCell>
        <mxCell id="Ac4ICfkRYc5ZsgaLKNUM-16" style="edgeStyle=orthogonalEdgeStyle;orthogonalLoop=1;jettySize=auto;html=1;entryX=0.5;entryY=0;entryDx=0;entryDy=0;" parent="1" source="Ac4ICfkRYc5ZsgaLKNUM-17" target="Ac4ICfkRYc5ZsgaLKNUM-20" edge="1">
          <mxGeometry relative="1" as="geometry">
            <mxPoint x="1486" y="560" as="targetPoint" />
          </mxGeometry>
        </mxCell>
        <mxCell id="Ac4ICfkRYc5ZsgaLKNUM-17" value="Information of atoms and 3D structures" style="rounded=0;whiteSpace=wrap;html=1;" parent="1" vertex="1">
          <mxGeometry x="1426" y="410" width="120" height="60" as="geometry" />
        </mxCell>
        <mxCell id="Ac4ICfkRYc5ZsgaLKNUM-18" value="" style="edgeStyle=orthogonalEdgeStyle;orthogonalLoop=1;jettySize=auto;html=1;" parent="1" source="Ac4ICfkRYc5ZsgaLKNUM-20" target="Ac4ICfkRYc5ZsgaLKNUM-24" edge="1">
          <mxGeometry relative="1" as="geometry" />
        </mxCell>
        <mxCell id="Ac4ICfkRYc5ZsgaLKNUM-19" value="OUTPUT" style="edgeLabel;html=1;align=center;verticalAlign=middle;resizable=0;points=[];" parent="Ac4ICfkRYc5ZsgaLKNUM-18" vertex="1" connectable="0">
          <mxGeometry x="-0.175" y="2" relative="1" as="geometry">
            <mxPoint x="-2" y="7" as="offset" />
          </mxGeometry>
        </mxCell>
        <mxCell id="Ac4ICfkRYc5ZsgaLKNUM-20" value="CNN/RNN Model" style="rounded=0;whiteSpace=wrap;html=1;" parent="1" vertex="1">
          <mxGeometry x="1426" y="520" width="120" height="60" as="geometry" />
        </mxCell>
        <mxCell id="Ac4ICfkRYc5ZsgaLKNUM-21" value="GPRs: In addition to metabolism, relationships between DNA, RNA, proteins, and other molecules, are also key factors should have been considered in GEMs reconstruction. We see all metabolism and regulations are reactions.&amp;nbsp;" style="ellipse;whiteSpace=wrap;html=1;" parent="1" vertex="1">
          <mxGeometry x="990" y="160" width="220" height="160" as="geometry" />
        </mxCell>
        <mxCell id="Ac4ICfkRYc5ZsgaLKNUM-22" value="" style="edgeStyle=orthogonalEdgeStyle;orthogonalLoop=1;jettySize=auto;html=1;" parent="1" source="Ac4ICfkRYc5ZsgaLKNUM-24" target="Ac4ICfkRYc5ZsgaLKNUM-25" edge="1">
          <mxGeometry relative="1" as="geometry" />
        </mxCell>
        <mxCell id="Ac4ICfkRYc5ZsgaLKNUM-23" value="Adding metabolism&lt;div&gt;&amp;nbsp;and relationships&lt;/div&gt;" style="edgeLabel;html=1;align=center;verticalAlign=middle;resizable=0;points=[];" parent="Ac4ICfkRYc5ZsgaLKNUM-22" vertex="1" connectable="0">
          <mxGeometry x="-0.1" relative="1" as="geometry">
            <mxPoint x="-6" as="offset" />
          </mxGeometry>
        </mxCell>
        <mxCell id="Ac4ICfkRYc5ZsgaLKNUM-24" value="Predicted K&lt;sub&gt;r&lt;/sub&gt;" style="whiteSpace=wrap;html=1;rounded=0;" parent="1" vertex="1">
          <mxGeometry x="1426" y="640" width="120" height="60" as="geometry" />
        </mxCell>
        <mxCell id="Ac4ICfkRYc5ZsgaLKNUM-25" value="Relationship constrained GEM (rcGEM)" style="whiteSpace=wrap;html=1;rounded=0;" parent="1" vertex="1">
          <mxGeometry x="1106" y="640" width="120" height="60" as="geometry" />
        </mxCell>
        <mxCell id="Ac4ICfkRYc5ZsgaLKNUM-26" value="K&lt;sub&gt;r&lt;/sub&gt;: K&lt;sub&gt;r&lt;/sub&gt;&amp;nbsp;values could be 4 types. 1, activate one reaction; -1, deactivate one reaction; 0~K&lt;sub&gt;r&lt;/sub&gt;, an enzyme,&amp;nbsp;vesica, etc.; 0, no significant relationship.&amp;nbsp; &amp;nbsp;" style="ellipse;whiteSpace=wrap;html=1;" parent="1" vertex="1">
          <mxGeometry x="990" y="340" width="220" height="160" as="geometry" />
        </mxCell>
        <mxCell id="rzJUm0-_hhL29lvpPQFW-2" value="" style="edgeStyle=orthogonalEdgeStyle;rounded=0;orthogonalLoop=1;jettySize=auto;html=1;" edge="1" parent="1" source="rzJUm0-_hhL29lvpPQFW-1">
          <mxGeometry relative="1" as="geometry">
            <mxPoint x="1286" y="290" as="targetPoint" />
          </mxGeometry>
        </mxCell>
        <mxCell id="rzJUm0-_hhL29lvpPQFW-1" value="NCBI,&lt;div&gt;PDB,&lt;br&gt;&lt;div&gt;&amp;nbsp;etc.&lt;/div&gt;&lt;/div&gt;" style="shape=datastore;whiteSpace=wrap;html=1;" vertex="1" parent="1">
          <mxGeometry x="1241" y="160" width="90" height="90" as="geometry" />
        </mxCell>
        <mxCell id="rzJUm0-_hhL29lvpPQFW-4" value="" style="edgeStyle=orthogonalEdgeStyle;rounded=0;orthogonalLoop=1;jettySize=auto;html=1;" edge="1" parent="1" source="rzJUm0-_hhL29lvpPQFW-5">
          <mxGeometry relative="1" as="geometry">
            <mxPoint x="1486" y="290" as="targetPoint" />
          </mxGeometry>
        </mxCell>
        <mxCell id="rzJUm0-_hhL29lvpPQFW-5" value="KEGG,&lt;div&gt;TRANSFAC,&lt;br&gt;&lt;div&gt;&amp;nbsp; etc.&lt;/div&gt;&lt;/div&gt;" style="shape=datastore;whiteSpace=wrap;html=1;" vertex="1" parent="1">
          <mxGeometry x="1431" y="160" width="110" height="100" as="geometry" />
        </mxCell>
      </root>
    </mxGraphModel>
  </diagram>
</mxfile>
